<mxfile host="app.diagrams.net" modified="2024-07-14T18:33:45.693Z" agent="Mozilla/5.0 (Windows NT 10.0; Win64; x64) AppleWebKit/537.36 (KHTML, like Gecko) Chrome/118.0.0.0 Safari/537.36" etag="o5oLKxhyY_0Cswxq8LE2" version="24.6.4" type="github">
  <diagram name="Página-1" id="xhBu50pJZfLyVbmMmCUi">
    <mxGraphModel dx="1120" dy="438" grid="1" gridSize="10" guides="1" tooltips="1" connect="1" arrows="1" fold="1" page="1" pageScale="1" pageWidth="827" pageHeight="1169" math="0" shadow="0">
      <root>
        <mxCell id="0" />
        <mxCell id="1" parent="0" />
        <mxCell id="_sGSYCx3SggNJxipuRqc-30" value="" style="html=1;whiteSpace=wrap;" vertex="1" parent="1">
          <mxGeometry x="70" y="55" width="650" height="430" as="geometry" />
        </mxCell>
        <mxCell id="_sGSYCx3SggNJxipuRqc-4" value="Servidor Web" style="verticalAlign=top;align=left;spacingTop=8;spacingLeft=2;spacingRight=12;shape=cube;size=10;direction=south;fontStyle=4;html=1;whiteSpace=wrap;" vertex="1" parent="1">
          <mxGeometry x="410" y="220" width="290" height="230" as="geometry" />
        </mxCell>
        <mxCell id="_sGSYCx3SggNJxipuRqc-2" value="PC" style="verticalAlign=top;align=left;spacingTop=8;spacingLeft=2;spacingRight=12;shape=cube;size=10;direction=south;fontStyle=4;html=1;whiteSpace=wrap;" vertex="1" parent="1">
          <mxGeometry x="440" y="70" width="170" height="110" as="geometry" />
        </mxCell>
        <mxCell id="_sGSYCx3SggNJxipuRqc-1" value="Web Navegador" style="shape=module;align=left;spacingLeft=20;align=center;verticalAlign=top;whiteSpace=wrap;html=1;" vertex="1" parent="1">
          <mxGeometry x="460" y="110" width="100" height="50" as="geometry" />
        </mxCell>
        <mxCell id="_sGSYCx3SggNJxipuRqc-3" value="Actor" style="shape=umlActor;verticalLabelPosition=bottom;verticalAlign=top;html=1;" vertex="1" parent="1">
          <mxGeometry x="240" y="80" width="30" height="60" as="geometry" />
        </mxCell>
        <mxCell id="_sGSYCx3SggNJxipuRqc-5" value="Servidor HTTP" style="shape=module;align=left;spacingLeft=20;align=center;verticalAlign=top;whiteSpace=wrap;html=1;" vertex="1" parent="1">
          <mxGeometry x="430" y="270" width="100" height="50" as="geometry" />
        </mxCell>
        <mxCell id="_sGSYCx3SggNJxipuRqc-6" value="Log" style="shape=module;align=left;spacingLeft=20;align=center;verticalAlign=top;whiteSpace=wrap;html=1;" vertex="1" parent="1">
          <mxGeometry x="570" y="330" width="70" height="50" as="geometry" />
        </mxCell>
        <mxCell id="_sGSYCx3SggNJxipuRqc-7" value="Basede Datos&lt;div&gt;Interface&lt;/div&gt;" style="shape=module;align=left;spacingLeft=20;align=center;verticalAlign=top;whiteSpace=wrap;html=1;" vertex="1" parent="1">
          <mxGeometry x="430" y="390" width="110" height="50" as="geometry" />
        </mxCell>
        <mxCell id="_sGSYCx3SggNJxipuRqc-8" value="Servidor Base de Datos" style="verticalAlign=top;align=left;spacingTop=8;spacingLeft=2;spacingRight=12;shape=cube;size=10;direction=south;fontStyle=4;html=1;whiteSpace=wrap;" vertex="1" parent="1">
          <mxGeometry x="130" y="230" width="180" height="230" as="geometry" />
        </mxCell>
        <mxCell id="_sGSYCx3SggNJxipuRqc-9" value="MySQL" style="shape=module;align=left;spacingLeft=20;align=center;verticalAlign=top;whiteSpace=wrap;html=1;" vertex="1" parent="1">
          <mxGeometry x="140" y="270" width="100" height="50" as="geometry" />
        </mxCell>
        <mxCell id="_sGSYCx3SggNJxipuRqc-10" value="Disco&lt;div&gt;Almacenamiento&lt;/div&gt;" style="shape=module;align=left;spacingLeft=20;align=center;verticalAlign=top;whiteSpace=wrap;html=1;" vertex="1" parent="1">
          <mxGeometry x="140" y="380" width="120" height="60" as="geometry" />
        </mxCell>
        <mxCell id="_sGSYCx3SggNJxipuRqc-15" value="" style="endArrow=block;startArrow=block;endFill=1;startFill=1;html=1;rounded=0;" edge="1" parent="1">
          <mxGeometry width="160" relative="1" as="geometry">
            <mxPoint x="280" y="124.5" as="sourcePoint" />
            <mxPoint x="440" y="124.5" as="targetPoint" />
          </mxGeometry>
        </mxCell>
        <mxCell id="_sGSYCx3SggNJxipuRqc-18" value="" style="endArrow=block;startArrow=block;endFill=1;startFill=1;html=1;rounded=0;entryX=0.25;entryY=0;entryDx=0;entryDy=0;" edge="1" parent="1" target="_sGSYCx3SggNJxipuRqc-6">
          <mxGeometry width="160" relative="1" as="geometry">
            <mxPoint x="525" y="300" as="sourcePoint" />
            <mxPoint x="685" y="300" as="targetPoint" />
          </mxGeometry>
        </mxCell>
        <mxCell id="_sGSYCx3SggNJxipuRqc-19" value="" style="endArrow=block;startArrow=block;endFill=1;startFill=1;html=1;rounded=0;entryX=0.5;entryY=1;entryDx=0;entryDy=0;exitX=1;exitY=0.75;exitDx=0;exitDy=0;" edge="1" parent="1" source="_sGSYCx3SggNJxipuRqc-7" target="_sGSYCx3SggNJxipuRqc-6">
          <mxGeometry width="160" relative="1" as="geometry">
            <mxPoint x="560" y="360" as="sourcePoint" />
            <mxPoint x="623" y="390" as="targetPoint" />
          </mxGeometry>
        </mxCell>
        <mxCell id="_sGSYCx3SggNJxipuRqc-22" value="" style="endArrow=block;startArrow=block;endFill=1;startFill=1;html=1;rounded=0;entryX=0.63;entryY=1.06;entryDx=0;entryDy=0;entryPerimeter=0;" edge="1" parent="1" source="_sGSYCx3SggNJxipuRqc-7" target="_sGSYCx3SggNJxipuRqc-5">
          <mxGeometry width="160" relative="1" as="geometry">
            <mxPoint x="443.5" y="370.55555555555554" as="sourcePoint" />
            <mxPoint x="516.5" y="330" as="targetPoint" />
          </mxGeometry>
        </mxCell>
        <mxCell id="_sGSYCx3SggNJxipuRqc-23" value="" style="endArrow=block;startArrow=block;endFill=1;startFill=1;html=1;rounded=0;exitX=0.304;exitY=0.389;exitDx=0;exitDy=0;exitPerimeter=0;entryX=0.783;entryY=0.897;entryDx=0;entryDy=0;entryPerimeter=0;" edge="1" parent="1" source="_sGSYCx3SggNJxipuRqc-8" target="_sGSYCx3SggNJxipuRqc-4">
          <mxGeometry width="160" relative="1" as="geometry">
            <mxPoint x="254" y="360" as="sourcePoint" />
            <mxPoint x="414" y="360" as="targetPoint" />
          </mxGeometry>
        </mxCell>
        <mxCell id="_sGSYCx3SggNJxipuRqc-24" value="" style="endArrow=block;startArrow=block;endFill=1;startFill=1;html=1;rounded=0;entryX=0.63;entryY=1.06;entryDx=0;entryDy=0;entryPerimeter=0;" edge="1" parent="1">
          <mxGeometry width="160" relative="1" as="geometry">
            <mxPoint x="187" y="387" as="sourcePoint" />
            <mxPoint x="193" y="320" as="targetPoint" />
          </mxGeometry>
        </mxCell>
        <mxCell id="_sGSYCx3SggNJxipuRqc-26" value="" style="endArrow=block;startArrow=block;endFill=1;startFill=1;html=1;rounded=0;exitX=0.304;exitY=0.389;exitDx=0;exitDy=0;exitPerimeter=0;entryX=0.83;entryY=0.06;entryDx=0;entryDy=0;entryPerimeter=0;" edge="1" parent="1" target="_sGSYCx3SggNJxipuRqc-5">
          <mxGeometry width="160" relative="1" as="geometry">
            <mxPoint x="495.43" y="160" as="sourcePoint" />
            <mxPoint x="524.5728571428571" y="220" as="targetPoint" />
          </mxGeometry>
        </mxCell>
        <mxCell id="_sGSYCx3SggNJxipuRqc-27" value="Usuario Interface" style="text;html=1;align=center;verticalAlign=middle;resizable=0;points=[];autosize=1;strokeColor=none;fillColor=none;" vertex="1" parent="1">
          <mxGeometry x="295" y="95" width="110" height="30" as="geometry" />
        </mxCell>
        <mxCell id="_sGSYCx3SggNJxipuRqc-28" value="Conexión HTTP/HTTPS" style="text;html=1;align=center;verticalAlign=middle;resizable=0;points=[];autosize=1;strokeColor=none;fillColor=none;" vertex="1" parent="1">
          <mxGeometry x="510" y="190" width="150" height="30" as="geometry" />
        </mxCell>
        <mxCell id="_sGSYCx3SggNJxipuRqc-29" value="Socket&lt;div&gt;TCP/IP&amp;nbsp;&lt;/div&gt;" style="text;html=1;align=center;verticalAlign=middle;resizable=0;points=[];autosize=1;strokeColor=none;fillColor=none;" vertex="1" parent="1">
          <mxGeometry x="315" y="315" width="70" height="40" as="geometry" />
        </mxCell>
        <mxCell id="_sGSYCx3SggNJxipuRqc-33" value="Diagrama de Despliegue" style="text;html=1;align=center;verticalAlign=middle;resizable=0;points=[];autosize=1;strokeColor=none;fillColor=none;" vertex="1" parent="1">
          <mxGeometry x="60" y="55" width="160" height="30" as="geometry" />
        </mxCell>
      </root>
    </mxGraphModel>
  </diagram>
</mxfile>
